<svg width="20" height="20" viewBox="0 0 20 20" fill="none" xmlns="http://www.w3.org/2000/svg">
<path d="M10 9.625C9.47904 9.625 8.97942 9.42746 8.61104 9.07583C8.24267 8.72419 8.03571 8.24728 8.03571 7.75C8.03571 7.25272 8.24267 6.77581 8.61104 6.42417C8.97942 6.07254 9.47904 5.875 10 5.875C10.521 5.875 11.0206 6.07254 11.389 6.42417C11.7573 6.77581 11.9643 7.25272 11.9643 7.75C11.9643 7.99623 11.9135 8.24005 11.8148 8.46753C11.716 8.69502 11.5714 8.90172 11.389 9.07583C11.2066 9.24994 10.99 9.38805 10.7517 9.48227C10.5134 9.5765 10.258 9.625 10 9.625ZM10 2.5C8.54131 2.5 7.14236 3.05312 6.11091 4.03769C5.07946 5.02226 4.5 6.35761 4.5 7.75C4.5 11.6875 10 17.5 10 17.5C10 17.5 15.5 11.6875 15.5 7.75C15.5 6.35761 14.9205 5.02226 13.8891 4.03769C12.8576 3.05312 11.4587 2.5 10 2.5Z" fill="white"/>
</svg>
