<svg width="20" height="20" viewBox="0 0 20 20" fill="none" xmlns="http://www.w3.org/2000/svg">
<path d="M16.4206 6.79891C15.826 9.11765 14.6193 11.234 12.9266 12.9267C11.234 14.6193 9.11764 15.826 6.79891 16.4206C5.01474 16.8747 3.49891 15.3406 3.49891 13.4989V12.6656C3.49891 12.2056 3.87308 11.8364 4.33058 11.7906C5.08924 11.7152 5.83396 11.536 6.54391 11.2581L7.81058 12.5247C9.87297 11.5361 11.5361 9.87297 12.5247 7.81058L11.2581 6.54391C11.5363 5.83401 11.7157 5.08928 11.7914 4.33058C11.8364 3.87225 12.2056 3.49891 12.6656 3.49891H13.4989C15.3406 3.49891 16.8747 5.01475 16.4206 6.79891Z" stroke="white" stroke-width="1.5" stroke-linecap="round" stroke-linejoin="round"/>
</svg>
