<svg width="19" height="19" viewBox="0 0 19 19" fill="none" xmlns="http://www.w3.org/2000/svg">
<path d="M16.1204 2.6532C16.3966 2.84456 16.5415 3.17536 16.4896 3.50615L14.7395 14.8788C14.6985 15.144 14.5372 15.3763 14.302 15.5076C14.0669 15.6388 13.7852 15.6552 13.5364 15.5513L10.266 14.1926L8.39295 16.2184C8.14959 16.4835 7.76677 16.571 7.43044 16.4398C7.09411 16.3086 6.87535 15.9832 6.87535 15.6224V13.3369C6.87535 13.2276 6.91637 13.1237 6.9902 13.0417L11.5731 8.04427C11.7317 7.87204 11.7262 7.60686 11.5621 7.44283C11.3981 7.2788 11.1328 7.26787 10.9606 7.42369L5.39877 12.3637L2.98428 11.1553C2.69443 11.0104 2.50849 10.7207 2.50028 10.3981C2.49208 10.0755 2.66162 9.77477 2.94053 9.61347L15.1907 2.61492C15.4833 2.44816 15.8442 2.46457 16.1204 2.6532Z" fill="white"/>
</svg>
